PathFileType	4	(X/Y/Z)	C:/Users/opensim2020/Desktop/walking_exp_matlab/subject02_walking14_straight_03.trc																																																																																																																									
DataRate	CameraRate	NumFrames	NumMarkers	Units	OrigDataRate	OrigDataStartFrame	OrigNumFrames																																																																																																																					
100	100	4	41	mm	100	1334	127																																																																																																																					
Frame#	Time	LFHD			RFHD			LBHD			RBHD			C7			T10			CLAV			STRN			RBAK			LSHO			LUPA			LELB			LFRM			LWRA			LWRB			LFIN			RSHO			RUPA			RELB			RFRM			RWRA			RWRB			RFIN			LASI			RASI			LPSI			RPSI			LTHI			LKNE			LTIB			LANK			LHEE			LTOE			RTHI			RKNE			RTIB			RANK			RHEE			RTOE			*39			*40		
		X1	Y1	Z1	X2	Y2	Z2	X3	Y3	Z3	X4	Y4	Z4	X5	Y5	Z5	X6	Y6	Z6	X7	Y7	Z7	X8	Y8	Z8	X9	Y9	Z9	X10	Y10	Z10	X11	Y11	Z11	X12	Y12	Z12	X13	Y13	Z13	X14	Y14	Z14	X15	Y15	Z15	X16	Y16	Z16	X17	Y17	Z17	X18	Y18	Z18	X19	Y19	Z19	X20	Y20	Z20	X21	Y21	Z21	X22	Y22	Z22	X23	Y23	Z23	X24	Y24	Z24	X25	Y25	Z25	X26	Y26	Z26	X27	Y27	Z27	X28	Y28	Z28	X29	Y29	Z29	X30	Y30	Z30	X31	Y31	Z31	X32	Y32	Z32	X33	Y33	Z33	X34	Y34	Z34	X35	Y35	Z35	X36	Y36	Z36	X37	Y37	Z37	X38	Y38	Z38	X39	Y39	Z39	X40	Y40	Z40	X41	Y41	Z41
																																																																																																																												
96	0.95	463.27567	1717.10291	1430.30322	478.0253	1704.88708	1573.21558	331.29202	1645.16577	1438.95703	332.88361	1631.83557	1581.57214	281.04611	1507.22827	1511.74304	227.32327	1231.79443	1521.06128	419.67926	1437.61804	1497.85181	471.15179	1265.84082	1504.04285	222.51117	1331.41003	1574.05884	347.65262	1481.16528	1331.99854	360.22327	1288.47119	1238.73047	387.76163	1148.24561	1215.77234	460.17404	1034.81335	1214.94971	566.86566	958.55743	1261.20435	530.12689	934.56897	1226.10059	580.61188	892.86682	1226.57117	356.33752	1473.76038	1695.12903	289.16541	1300.60779	1782.63245	274.53555	1155.88428	1810.45715	279.79803	1035.03088	1832.52429	295.84836	899.52277	1810.17725	256.39957	907.86401	1850.79834	274.23941	835.61652	1845.83276	428.28253	961.8006	1373.14856	462.79291	960.04022	1626.72339	234.21634	1016.40674	1478.94995	241.72951	1015.39807	1592.27783	298.02145	659.25842	1348.45776	223.96384	469.89023	1391.79443	126.11091	300.87036	1400.94678	84.70514	80.64116	1445.12488	45.992	57.45123	1497.51379	236.4223	33.96213	1426.7002	478.27029	674.52234	1714.87354	547.90912	479.35855	1683.43286	555.05164	291.65286	1700.75305	587.57043	99.21284	1677.26636	568.68549	35.87987	1624.52563	748.03149	82.10774	1681.96631	372.61798	1788.4823	1526.72473	2846.07642	1034.36523	-3357.31006
97	0.96	478.45898	1714.37561	1429.77588	493.37619	1702.03735	1572.79578	346.51105	1642.41357	1438.70667	348.22269	1629.03625	1581.22388	296.26971	1504.40698	1511.13586	242.41925	1229.04199	1521.07336	434.91324	1434.73608	1497.34949	486.26273	1262.94617	1503.3822	237.66714	1328.60083	1573.37488	363.13535	1478.4502	1331.79797	376.89737	1287.03906	1237.19812	406.82602	1147.48486	1213.26978	482.88794	1036.16333	1212.53442	592.49261	964.49127	1259.19116	556.63354	938.92334	1224.20703	608.87842	899.14398	1224.83191	371.26389	1470.77881	1694.67981	302.17484	1298.72607	1781.81616	285.66223	1154.37073	1809.79211	288.5907	1033.63623	1832.69995	302.82327	897.66309	1811.59497	262.71851	906.88855	1851.3241	279.55975	834.35944	1847.33081	441.7428	958.7511	1372.21033	478.8367	957.0282	1625.92627	248.62094	1013.29462	1480.00159	256.55304	1012.53326	1592.76428	308.01062	657.8302	1347.86243	231.96176	469.37048	1391.59473	131.06537	302.25757	1400.86389	85.61712	82.61546	1444.77148	46.35587	60.6539	1497.41541	236.60698	33.98101	1426.62805	491.43619	669.95734	1714.05298	562.71539	476.40842	1682.05054	581.59772	290.53522	1700.76367	625.55859	99.63753	1677.63147	609.09943	34.74279	1625.68347	786.83252	91.38208	1678.54175	387.92276	1785.62781	1526.37085	2846.05322	1034.33997	-3357.35645
98	0.97	493.67856	1711.61145	1429.45605	508.78244	1699.18909	1572.3667	361.78284	1639.82324	1438.63	363.57422	1626.27246	1581.00195	311.07535	1501.92163	1510.83606	257.63364	1226.29175	1521.31604	450.24097	1431.91833	1496.99695	501.49545	1260.08447	1502.78833	252.9131	1325.61365	1572.63916	378.57266	1475.79065	1331.67493	393.29114	1285.56946	1235.80298	425.10059	1146.31348	1210.40857	505.48831	1037.98376	1209.86438	617.18115	970.36151	1257.10327	582.25189	943.34601	1222.04224	636.16663	905.8031	1223.08728	386.32318	1467.97668	1694.27295	315.10831	1296.61182	1780.69043	296.91339	1152.79944	1808.99219	297.54749	1032.13562	1832.65076	310.34607	895.98651	1813.13721	269.5769	906.06073	1851.91931	285.56995	833.35724	1848.9895	455.81003	955.96906	1371.02002	495.13434	954.17975	1624.99219	263.25769	1010.22351	1481.16553	272.23093	1009.625	1593.54663	318.68042	656.22461	1347.12061	240.53804	468.992	1391.33679	136.47916	303.99399	1400.6886	86.68122	85.00292	1444.35107	47.14095	64.04554	1497.16162	236.75012	33.93653	1426.65442	504.60516	666.19904	1714.74915	577.50165	473.49387	1680.25574	607.13556	290.00137	1700.62964	662.19232	101.33967	1677.91992	647.41547	34.47862	1626.65698	822.953	101.03951	1674.80176	403.37302	1782.94946	1526.21973	2845.30786	1034.27148	-3360.4165
99	0.98	508.96365	1708.79041	1429.09558	524.20947	1696.3894	1572.05078	376.94821	1637.06177	1438.27466	379.02203	1623.54211	1580.81287	326.72919	1498.82751	1510.11646	273.05145	1223.5094	1521.6366	465.63995	1429.17822	1496.74268	516.80969	1257.32947	1502.23218	268.35751	1323.0282	1572.49695	393.93076	1473.24829	1331.62085	409.86517	1284.07141	1234.76685	443.189	1145.39026	1208.27271	527.13062	1039.8584	1207.68103	641.2027	976.45599	1254.98706	607.14325	948.05219	1220.17822	662.50293	912.41626	1221.19897	401.60632	1465.28296	1693.93665	328.7019	1294.89209	1780.245	308.38736	1151.17444	1808.17346	307.29697	1031.14368	1833.26025	318.56143	894.47803	1814.82776	277.07443	905.41229	1852.54944	292.24149	832.5697	1850.74268	470.00067	953.15839	1369.8396	511.64532	951.58508	1623.90076	278.21863	1007.15741	1482.50647	288.4379	1006.73743	1594.61682	329.74503	654.94995	1346.43347	249.76762	468.61618	1390.96326	142.45921	305.78085	1400.41931	87.95013	87.79287	1443.90576	47.89783	67.51003	1496.36023	236.58662	33.87432	1426.06873	516.15735	661.6405	1714.93604	592.63922	470.86899	1679.24597	630.85986	289.51288	1699.76465	694.0528	102.80296	1676.92993	681.26282	35.30382	1626.50549	855.38037	109.23314	1670.40149	418.91843	1780.23877	1526.20508	2846.03027	1034.30273	-3357.27759
